<?xml version="1.0" encoding="utf-8"?>
<!-- Generator: Adobe Illustrator 16.0.4, SVG Export Plug-In . SVG Version: 6.00 Build 0)  -->
<!DOCTYPE svg PUBLIC "-//W3C//DTD SVG 1.1//EN" "http://www.w3.org/Graphics/SVG/1.1/DTD/svg11.dtd">
<svg version="1.1" id="Layer_1" xmlns="http://www.w3.org/2000/svg" xmlns:xlink="http://www.w3.org/1999/xlink" x="0px" y="0px"
	 width="500px" height="500px" viewBox="0 0 500 500" enable-background="new 0 0 500 500" xml:space="preserve">
<g>
	<path fill="#FFFFFF" d="M36.096,13.296c-0.089-2.322-2.13-2.809-2.13-2.809s-7.074-1.066-10.173-1.453
		c-3.1-0.389-2.907,2.615-2.907,2.615s0.704,21.895,0.777,24.607c0.083,3.231,3.099,2.711,3.099,2.711l10.658-1.843
		c1.938-0.388,2.034-2.808,2.034-2.808S36.195,15.831,36.096,13.296C36.007,10.974,36.195,15.831,36.096,13.296z M33.712,31.895
		l-7.925,0.821c0,0-2.308,0.352-2.36-2.452c-0.038-2.066-0.495-13.9-0.495-13.9s-0.159-2.17,2.216-1.992
		c2.424,0.18,8.232,0.622,8.232,0.622s1.555,0.37,1.623,2.142c0.073,1.926,0.744,12.622,0.744,12.622S35.922,31.516,33.712,31.895z"
		/>
	<path fill="#FFFFFF" d="M14.311,28.705l-1.464,0.104c0,0-1.477,0.2-1.511-1.416c-0.024-1.191-0.172-7.951-0.172-7.951
		s-0.102-1.251,1.417-1.149c0.385,0.025,0.931,0.06,1.534,0.096c-0.021-1.121-0.039-2.101-0.053-2.847
		c-0.836-0.063-1.618-0.131-2.177-0.19c-2.007-0.221-1.884,1.464-1.884,1.464s0.242,12.398,0.287,13.918
		c0.055,1.812,2.006,1.518,2.006,1.518l2.083-0.223C14.359,31.13,14.335,29.984,14.311,28.705z"/>
	<path fill="#FFFFFF" d="M20.134,17.436c-0.007-0.158-0.033-0.302-0.073-0.431c-0.641-0.052-2.25-0.471-2.766,0.074
		c-0.327,0.343-0.192,1.066-0.184,1.477c0.69,0.039,1.167,0.066,1.167,0.066s0.995,0.213,1.038,1.233
		c0.046,1.112,0.04,7.341,0.04,7.341s0.112,1.016-1.3,1.231l-0.741,0.055c0.004,0.221,0.008,0.399,0.01,0.531
		c0.031,1.776,1.92,1.207,3.105,1.092c0.102-1.884-0.079-3.825-0.121-5.71C20.258,22.076,20.239,19.753,20.134,17.436
		C20.127,17.278,20.198,18.854,20.134,17.436z"/>
	<path fill="#FFFFFF" d="M20.747,30.833l-2.135,0.206c0,0-1.991,0.286-2.034-2.008c-0.031-1.693-0.231-11.289-0.231-11.289
		s-0.138-1.774,1.905-1.632c0.525,0.036,1.247,0.095,2.033,0.158c-0.059-1.841-0.106-3.293-0.13-4.041
		c-1.076-0.105-2.09-0.211-2.84-0.297c-2.7-0.306-2.53,2.081-2.53,2.081s0.321,17.602,0.384,19.753c0.073,2.571,2.7,2.158,2.7,2.158
		l3.023-0.387C20.862,34.534,20.811,32.853,20.747,30.833z"/>
	<path fill="#FFFFFF" d="M25.091,15.12c-0.378-0.03-0.837-0.005-1.117,0.29c-0.296,0.31-0.301,0.75-0.284,1.148
		c1.071,0.093,1.848,0.162,1.848,0.162s1.338,0.301,1.399,1.751c0.062,1.577,0.445,10.146,0.445,10.146s0.15,1.441-1.752,1.752
		l-1.44,0.138c0.191,2.251,3.102,1.301,4.591,1.147c-0.153-3.385-0.627-13.854-0.734-16.312
		C26.918,15.254,25.84,15.173,25.091,15.12C25.017,15.114,25.84,15.173,25.091,15.12z"/>
</g>
<g>
	<path fill="#FFFFFF" d="M49.953,18.058c1.152,0,2.024,0.296,2.616,0.889c1.232,1.232,1.223,3.749,0,4.983
		c-1.37,1.386-4.317,0.88-6.104,0.88v4.673h-1.52V18.058H49.953z M49.441,23.529c0.864,0.011,1.496-0.165,1.896-0.528
		c0.824-0.746,0.831-2.384,0-3.128c-1.075-0.957-3.537-0.535-4.872-0.535v4.191H49.441z"/>
	<path fill="#FFFFFF" d="M56.193,18.058v4.368h0.032c0.62-1.498,2.947-1.755,4.227-1.061c1.112,0.604,1.229,1.857,1.229,2.993
		c0,1.708,0,3.417,0,5.125h-1.36c0-1.096,0-2.191,0-3.287c0-0.963,0.307-2.774-0.448-3.531c-0.889-0.887-2.63-0.436-3.258,0.536
		c-0.457,0.708-0.422,1.535-0.422,2.337c0,1.314,0,2.628,0,3.943h-1.36V18.057C55.286,18.058,55.74,18.058,56.193,18.058z"/>
	<path fill="#FFFFFF" d="M63.474,23.649c0.7-2.174,3.14-3.149,5.241-2.399c2.308,0.823,2.983,3.65,2.279,5.798
		c-0.712,2.175-3.13,3.107-5.231,2.379C63.436,28.622,62.777,25.801,63.474,23.649C63.644,23.121,63.303,24.177,63.474,23.649z
		 M64.858,26.69c0.505,1.478,2.184,2.279,3.604,1.461c1.366-0.786,1.617-2.756,1.147-4.134c-0.503-1.479-2.177-2.302-3.604-1.474
		C64.641,23.336,64.393,25.309,64.858,26.69C64.991,27.08,64.726,26.299,64.858,26.69z"/>
	<path fill="#FFFFFF" d="M74.103,21.208v1.312c0.982-1.205,2.225-1.852,3.852-1.36c1.427,0.431,1.716,1.783,1.716,3.104
		c0,1.739,0,3.478,0,5.217h-1.36c0-1.096,0-2.191,0-3.287c0-0.963,0.308-2.774-0.448-3.531c-0.89-0.887-2.63-0.436-3.258,0.536
		c-0.458,0.708-0.422,1.535-0.422,2.337c0,1.314,0,2.628,0,3.942h-1.36v-8.271C73.25,21.208,73.676,21.208,74.103,21.208z"/>
	<path fill="#FFFFFF" d="M87.511,28.954c-1.04,0.789-2.595,0.9-3.806,0.482c-1.488-0.513-2.239-1.892-2.438-3.381
		c-0.208-1.553,0.214-3.232,1.483-4.241c1.121-0.891,2.933-1.12,4.177-0.34c1.437,0.902,1.983,2.652,1.912,4.28h-6.192
		c-0.06,2.013,2.187,3.619,3.992,2.321c0.368-0.268,0.611-0.672,0.728-1.216h1.344C88.529,27.786,88.13,28.484,87.511,28.954
		C86.892,29.424,88.13,28.484,87.511,28.954z M87.183,23.642c-1.009-2.362-4.376-1.521-4.536,0.912h4.752
		C87.378,24.233,87.305,23.93,87.183,23.642C87.06,23.354,87.305,23.93,87.183,23.642z"/>
	<path fill="#FFFFFF" d="M97.437,29.346c-2.063,0.812-4.517,0.338-6-1.35c-1.587-1.803-1.783-4.493-0.991-6.692
		c0.779-2.165,2.694-3.518,4.991-3.518c2.431,0,4.513,1.285,4.912,3.794h-1.52c-0.35-2.037-2.499-2.84-4.358-2.406
		c-2.238,0.522-3.063,3.046-2.944,5.1c0.127,2.194,1.57,4.205,3.91,4.205c2.135,0,3.751-1.566,3.664-3.729h-3.648v-1.28h5.008v6.018
		H99.5l-0.4-1.425C98.652,28.655,98.097,29.083,97.437,29.346C96.775,29.607,98.097,29.083,97.437,29.346z"/>
	<path fill="#FFFFFF" d="M108.877,29.658c-0.352,0-0.632-0.1-0.84-0.296c-0.208-0.197-0.312-0.521-0.312-0.969
		c-1.354,1.62-5.377,2.016-5.634-0.738c-0.117-1.254,0.53-2.254,1.754-2.604c1.03-0.296,2.764-0.138,3.592-0.872
		c0.337-0.304,0.273-0.952,0.056-1.305c-0.855-1.379-3.649-0.724-3.736,0.912h-1.36c0.061-1.492,1.069-2.443,2.508-2.688
		c1.241-0.21,3.083-0.198,3.828,1.021c0.486,0.803,0.272,2.199,0.272,3.097c0,0.938-0.176,2.107,0.056,3.031
		c0.084,0.339,0.571,0.221,0.792,0.145v1.057C109.618,29.587,109.293,29.658,108.877,29.658z M106.973,25.49
		c-1,0.21-2.527,0.066-3.224,0.96c-0.488,0.615-0.22,1.587,0.492,1.876c0.798,0.325,1.89,0.153,2.59-0.326
		c0.976-0.667,0.814-1.766,0.814-2.792C107.474,25.337,107.25,25.431,106.973,25.49C106.695,25.549,107.25,25.431,106.973,25.49z"/>
	<path fill="#FFFFFF" d="M112.52,21.208v1.12h0.032c0.686-1.401,2.763-1.578,4.068-1.067c1.657,0.648,2.38,2.432,2.38,4.108
		s-0.69,3.429-2.364,4.055c-1.33,0.498-3.287,0.262-4.084-1.046h-0.032v4.256h-1.36V21.208H112.52z M117.406,24.146
		c-0.653-2.35-3.918-2.616-4.722-0.216c-0.373,1.113-0.321,2.606,0.387,3.585c0.684,0.948,2.161,1.273,3.184,0.689
		C117.576,27.438,117.775,25.484,117.406,24.146C117.304,23.779,117.508,24.514,117.406,24.146z"/>
</g>
</svg>
